<svg xmlns="http://www.w3.org/2000/svg" xmlns:xlink="http://www.w3.org/1999/xlink" width="500" zoomAndPan="magnify" viewBox="0 0 375 374.999991" height="500" preserveAspectRatio="xMidYMid meet" version="1.0"><defs><g/></defs><g fill="#ffffff" fill-opacity="1"><g transform="translate(112.2103, 216.247175)"><g><path d="M 2.828125 0 L 2.828125 -34.015625 L 7.859375 -34.015625 L 7.859375 -4.65625 L 23.59375 -4.65625 L 23.59375 0 Z M 2.828125 0 "/></g></g></g><g fill="#ffffff" fill-opacity="1"><g transform="translate(136.816188, 216.247175)"><g><path d="M 24.46875 -22.984375 L 24.46875 0 L 20.53125 0 L 19.8125 -2.640625 C 19.007812 -1.585938 17.984375 -0.785156 16.734375 -0.234375 C 15.492188 0.304688 14.234375 0.578125 12.953125 0.578125 C 11.347656 0.578125 9.847656 0.265625 8.453125 -0.359375 C 7.066406 -0.984375 5.851562 -1.835938 4.8125 -2.921875 C 3.78125 -4.015625 2.957031 -5.296875 2.34375 -6.765625 C 1.738281 -8.234375 1.4375 -9.800781 1.4375 -11.46875 C 1.4375 -13.125 1.738281 -14.6875 2.34375 -16.15625 C 2.957031 -17.632812 3.78125 -18.914062 4.8125 -20 C 5.851562 -21.09375 7.066406 -21.945312 8.453125 -22.5625 C 9.847656 -23.1875 11.347656 -23.5 12.953125 -23.5 C 14.234375 -23.5 15.460938 -23.25 16.640625 -22.75 C 17.828125 -22.257812 18.882812 -21.488281 19.8125 -20.4375 L 20.53125 -22.984375 Z M 12.953125 -3.546875 C 13.878906 -3.546875 14.757812 -3.753906 15.59375 -4.171875 C 16.425781 -4.585938 17.144531 -5.15625 17.75 -5.875 C 18.351562 -6.59375 18.832031 -7.429688 19.1875 -8.390625 C 19.539062 -9.347656 19.71875 -10.375 19.71875 -11.46875 C 19.71875 -12.550781 19.539062 -13.570312 19.1875 -14.53125 C 18.832031 -15.488281 18.351562 -16.328125 17.75 -17.046875 C 17.144531 -17.765625 16.425781 -18.332031 15.59375 -18.75 C 14.757812 -19.164062 13.878906 -19.375 12.953125 -19.375 C 12.023438 -19.375 11.144531 -19.164062 10.3125 -18.75 C 9.476562 -18.332031 8.757812 -17.765625 8.15625 -17.046875 C 7.550781 -16.328125 7.070312 -15.488281 6.71875 -14.53125 C 6.363281 -13.570312 6.1875 -12.550781 6.1875 -11.46875 C 6.1875 -10.375 6.363281 -9.347656 6.71875 -8.390625 C 7.070312 -7.429688 7.550781 -6.59375 8.15625 -5.875 C 8.757812 -5.15625 9.476562 -4.585938 10.3125 -4.171875 C 11.144531 -3.753906 12.023438 -3.546875 12.953125 -3.546875 Z M 12.953125 -3.546875 "/></g></g></g><g fill="#ffffff" fill-opacity="1"><g transform="translate(163.340662, 216.247175)"><g><path d="M 15.15625 -0.046875 C 13.84375 0.398438 12.546875 0.671875 11.265625 0.765625 C 9.992188 0.859375 8.84375 0.671875 7.8125 0.203125 C 6.789062 -0.253906 5.957031 -1.066406 5.3125 -2.234375 C 4.675781 -3.398438 4.359375 -5.035156 4.359375 -7.140625 L 4.359375 -18.796875 L 1 -18.796875 L 1 -22.015625 L 4.359375 -22.984375 L 4.359375 -29.109375 L 9.015625 -29.109375 L 9.015625 -22.984375 L 15.25 -22.984375 L 15.25 -18.796875 L 9.015625 -18.796875 L 9.015625 -6.421875 C 9.015625 -5.660156 9.101562 -5.054688 9.28125 -4.609375 C 9.457031 -4.160156 9.753906 -3.820312 10.171875 -3.59375 C 10.585938 -3.375 11.128906 -3.265625 11.796875 -3.265625 C 12.472656 -3.265625 13.289062 -3.328125 14.25 -3.453125 Z M 15.15625 -0.046875 "/></g></g></g><g fill="#ffffff" fill-opacity="1"><g transform="translate(179.744589, 216.247175)"><g><path d="M 12.765625 0.578125 C 11.160156 0.578125 9.660156 0.265625 8.265625 -0.359375 C 6.878906 -0.984375 5.664062 -1.835938 4.625 -2.921875 C 3.582031 -4.015625 2.757812 -5.296875 2.15625 -6.765625 C 1.550781 -8.234375 1.25 -9.800781 1.25 -11.46875 C 1.25 -13.125 1.550781 -14.6875 2.15625 -16.15625 C 2.757812 -17.632812 3.582031 -18.914062 4.625 -20 C 5.664062 -21.09375 6.878906 -21.945312 8.265625 -22.5625 C 9.660156 -23.1875 11.160156 -23.5 12.765625 -23.5 C 14.328125 -23.5 15.8125 -23.1875 17.21875 -22.5625 C 18.625 -21.945312 19.847656 -21.09375 20.890625 -20 C 21.929688 -18.914062 22.753906 -17.632812 23.359375 -16.15625 C 23.960938 -14.6875 24.265625 -13.125 24.265625 -11.46875 C 24.265625 -9.800781 23.960938 -8.234375 23.359375 -6.765625 C 22.753906 -5.296875 21.929688 -4.015625 20.890625 -2.921875 C 19.847656 -1.835938 18.625 -0.984375 17.21875 -0.359375 C 15.8125 0.265625 14.328125 0.578125 12.765625 0.578125 Z M 12.765625 -19.328125 C 11.835938 -19.328125 10.957031 -19.117188 10.125 -18.703125 C 9.289062 -18.285156 8.5625 -17.722656 7.9375 -17.015625 C 7.3125 -16.316406 6.820312 -15.488281 6.46875 -14.53125 C 6.125 -13.570312 5.953125 -12.550781 5.953125 -11.46875 C 5.953125 -10.375 6.125 -9.347656 6.46875 -8.390625 C 6.820312 -7.429688 7.3125 -6.59375 7.9375 -5.875 C 8.5625 -5.15625 9.289062 -4.585938 10.125 -4.171875 C 10.957031 -3.753906 11.835938 -3.546875 12.765625 -3.546875 C 13.691406 -3.546875 14.566406 -3.753906 15.390625 -4.171875 C 16.222656 -4.585938 16.941406 -5.15625 17.546875 -5.875 C 18.160156 -6.59375 18.640625 -7.429688 18.984375 -8.390625 C 19.335938 -9.347656 19.515625 -10.375 19.515625 -11.46875 C 19.515625 -12.550781 19.335938 -13.570312 18.984375 -14.53125 C 18.640625 -15.488281 18.160156 -16.316406 17.546875 -17.015625 C 16.941406 -17.722656 16.222656 -18.285156 15.390625 -18.703125 C 14.566406 -19.117188 13.691406 -19.328125 12.765625 -19.328125 Z M 12.765625 -19.328125 "/></g></g></g><g fill="#ffffff" fill-opacity="1"><g transform="translate(205.069951, 216.247175)"><g><path d="M 16.546875 -18.703125 C 16.328125 -18.804688 16.101562 -18.90625 15.875 -19 C 15.6875 -19.0625 15.460938 -19.125 15.203125 -19.1875 C 14.953125 -19.25 14.679688 -19.28125 14.390625 -19.28125 C 13.460938 -19.28125 12.597656 -19.128906 11.796875 -18.828125 C 10.992188 -18.523438 10.304688 -18.117188 9.734375 -17.609375 C 9.160156 -17.097656 8.703125 -16.5 8.359375 -15.8125 C 8.023438 -15.125 7.859375 -14.394531 7.859375 -13.625 L 7.8125 0 L 3.171875 0 L 3.171875 -22.984375 L 6.859375 -22.984375 L 7.8125 -20.4375 C 8.457031 -21.363281 9.296875 -22.101562 10.328125 -22.65625 C 11.367188 -23.21875 12.675781 -23.5 14.25 -23.5 C 15.269531 -23.5 16.4375 -23.359375 17.75 -23.078125 Z M 16.546875 -18.703125 "/></g></g></g><g fill="#ffffff" fill-opacity="1"><g transform="translate(223.200613, 216.247175)"><g><path d="M 16.546875 -18.703125 C 16.328125 -18.804688 16.101562 -18.90625 15.875 -19 C 15.6875 -19.0625 15.460938 -19.125 15.203125 -19.1875 C 14.953125 -19.25 14.679688 -19.28125 14.390625 -19.28125 C 13.460938 -19.28125 12.597656 -19.128906 11.796875 -18.828125 C 10.992188 -18.523438 10.304688 -18.117188 9.734375 -17.609375 C 9.160156 -17.097656 8.703125 -16.5 8.359375 -15.8125 C 8.023438 -15.125 7.859375 -14.394531 7.859375 -13.625 L 7.8125 0 L 3.171875 0 L 3.171875 -22.984375 L 6.859375 -22.984375 L 7.8125 -20.4375 C 8.457031 -21.363281 9.296875 -22.101562 10.328125 -22.65625 C 11.367188 -23.21875 12.675781 -23.5 14.25 -23.5 C 15.269531 -23.5 16.4375 -23.359375 17.75 -23.078125 Z M 16.546875 -18.703125 "/></g></g></g><g fill="#ffffff" fill-opacity="1"><g transform="translate(241.331268, 216.247175)"><g><path d="M 13.578125 0.578125 C 11.910156 0.578125 10.347656 0.265625 8.890625 -0.359375 C 7.441406 -0.984375 6.171875 -1.835938 5.078125 -2.921875 C 3.992188 -4.015625 3.140625 -5.296875 2.515625 -6.765625 C 1.890625 -8.234375 1.578125 -9.800781 1.578125 -11.46875 C 1.578125 -13.125 1.875 -14.6875 2.46875 -16.15625 C 3.0625 -17.632812 3.859375 -18.914062 4.859375 -20 C 5.867188 -21.09375 7.046875 -21.945312 8.390625 -22.5625 C 9.734375 -23.1875 11.175781 -23.5 12.71875 -23.5 C 14.28125 -23.5 15.722656 -23.226562 17.046875 -22.6875 C 18.378906 -22.144531 19.53125 -21.296875 20.5 -20.140625 C 21.476562 -18.992188 22.238281 -17.53125 22.78125 -15.75 C 23.320312 -13.976562 23.59375 -11.863281 23.59375 -9.40625 L 6.53125 -9.40625 C 6.75 -8.570312 7.097656 -7.796875 7.578125 -7.078125 C 8.054688 -6.359375 8.625 -5.734375 9.28125 -5.203125 C 9.9375 -4.671875 10.671875 -4.257812 11.484375 -3.96875 C 12.304688 -3.6875 13.164062 -3.546875 14.0625 -3.546875 C 15.269531 -3.546875 16.394531 -3.769531 17.4375 -4.21875 C 18.476562 -4.664062 19.363281 -5.257812 20.09375 -6 L 22.984375 -3.125 C 21.859375 -2 20.488281 -1.097656 18.875 -0.421875 C 17.257812 0.242188 15.492188 0.578125 13.578125 0.578125 Z M 12.71875 -19.28125 C 11.976562 -19.28125 11.28125 -19.132812 10.625 -18.84375 C 9.96875 -18.5625 9.359375 -18.164062 8.796875 -17.65625 C 8.242188 -17.144531 7.765625 -16.535156 7.359375 -15.828125 C 6.960938 -15.128906 6.664062 -14.363281 6.46875 -13.53125 L 18.609375 -13.53125 C 18.546875 -14.289062 18.367188 -15.023438 18.078125 -15.734375 C 17.796875 -16.441406 17.398438 -17.054688 16.890625 -17.578125 C 16.378906 -18.109375 15.78125 -18.523438 15.09375 -18.828125 C 14.40625 -19.128906 13.613281 -19.28125 12.71875 -19.28125 Z M 12.71875 -19.28125 "/></g></g></g><g fill="#ffffff" fill-opacity="1"><g transform="translate(83.319364, 182.401218)"><g><path d="M 31.65625 -34.015625 L 36.703125 -34.015625 L 36.703125 0 L 31.703125 0 L 31.703125 -26.09375 L 21.78125 -12.421875 L 17.890625 -12.421875 L 7.921875 -26.09375 L 7.921875 0 L 2.875 0 L 2.875 -34.015625 L 7.921875 -34.015625 L 19.8125 -17.65625 Z M 31.65625 -34.015625 "/></g></g></g><g fill="#ffffff" fill-opacity="1"><g transform="translate(122.896292, 182.401218)"><g><path d="M 24.46875 -22.984375 L 24.46875 0 L 20.53125 0 L 19.8125 -2.640625 C 19.007812 -1.585938 17.984375 -0.785156 16.734375 -0.234375 C 15.492188 0.304688 14.234375 0.578125 12.953125 0.578125 C 11.347656 0.578125 9.847656 0.265625 8.453125 -0.359375 C 7.066406 -0.984375 5.851562 -1.835938 4.8125 -2.921875 C 3.78125 -4.015625 2.957031 -5.296875 2.34375 -6.765625 C 1.738281 -8.234375 1.4375 -9.800781 1.4375 -11.46875 C 1.4375 -13.125 1.738281 -14.6875 2.34375 -16.15625 C 2.957031 -17.632812 3.78125 -18.914062 4.8125 -20 C 5.851562 -21.09375 7.066406 -21.945312 8.453125 -22.5625 C 9.847656 -23.1875 11.347656 -23.5 12.953125 -23.5 C 14.234375 -23.5 15.460938 -23.25 16.640625 -22.75 C 17.828125 -22.257812 18.882812 -21.488281 19.8125 -20.4375 L 20.53125 -22.984375 Z M 12.953125 -3.546875 C 13.878906 -3.546875 14.757812 -3.753906 15.59375 -4.171875 C 16.425781 -4.585938 17.144531 -5.15625 17.75 -5.875 C 18.351562 -6.59375 18.832031 -7.429688 19.1875 -8.390625 C 19.539062 -9.347656 19.71875 -10.375 19.71875 -11.46875 C 19.71875 -12.550781 19.539062 -13.570312 19.1875 -14.53125 C 18.832031 -15.488281 18.351562 -16.328125 17.75 -17.046875 C 17.144531 -17.765625 16.425781 -18.332031 15.59375 -18.75 C 14.757812 -19.164062 13.878906 -19.375 12.953125 -19.375 C 12.023438 -19.375 11.144531 -19.164062 10.3125 -18.75 C 9.476562 -18.332031 8.757812 -17.765625 8.15625 -17.046875 C 7.550781 -16.328125 7.070312 -15.488281 6.71875 -14.53125 C 6.363281 -13.570312 6.1875 -12.550781 6.1875 -11.46875 C 6.1875 -10.375 6.363281 -9.347656 6.71875 -8.390625 C 7.070312 -7.429688 7.550781 -6.59375 8.15625 -5.875 C 8.757812 -5.15625 9.476562 -4.585938 10.3125 -4.171875 C 11.144531 -3.753906 12.023438 -3.546875 12.953125 -3.546875 Z M 12.953125 -3.546875 "/></g></g></g><g fill="#ffffff" fill-opacity="1"><g transform="translate(149.424826, 182.401218)"><g><path d="M 7.25 0 L 2.59375 0 L 2.59375 -22.984375 L 6.28125 -22.984375 L 7.25 -20.96875 C 8.007812 -21.695312 8.929688 -22.300781 10.015625 -22.78125 C 11.109375 -23.257812 12.296875 -23.5 13.578125 -23.5 C 14.410156 -23.5 15.351562 -23.367188 16.40625 -23.109375 C 17.457031 -22.859375 18.4375 -22.378906 19.34375 -21.671875 C 20.257812 -20.972656 21.03125 -20 21.65625 -18.75 C 22.28125 -17.507812 22.59375 -15.894531 22.59375 -13.90625 L 22.59375 0 L 18.1875 0 L 18.1875 -13.953125 C 18.1875 -14.953125 18.03125 -15.796875 17.71875 -16.484375 C 17.414062 -17.171875 17.015625 -17.71875 16.515625 -18.125 C 16.023438 -18.539062 15.46875 -18.835938 14.84375 -19.015625 C 14.21875 -19.191406 13.570312 -19.28125 12.90625 -19.28125 C 12.394531 -19.28125 11.8125 -19.179688 11.15625 -18.984375 C 10.5 -18.796875 9.878906 -18.484375 9.296875 -18.046875 C 8.722656 -17.617188 8.238281 -17.078125 7.84375 -16.421875 C 7.445312 -15.773438 7.25 -14.96875 7.25 -14 Z M 7.25 0 "/></g></g></g><g fill="#ffffff" fill-opacity="1"><g transform="translate(175.041891, 182.401218)"><g><path d="M 18.234375 -2.0625 C 17.429688 -1.320312 16.492188 -0.710938 15.421875 -0.234375 C 14.347656 0.242188 13.15625 0.484375 11.84375 0.484375 C 11.007812 0.484375 10.066406 0.363281 9.015625 0.125 C 7.960938 -0.113281 6.976562 -0.582031 6.0625 -1.28125 C 5.15625 -1.988281 4.390625 -2.957031 3.765625 -4.1875 C 3.140625 -5.425781 2.828125 -7.035156 2.828125 -9.015625 L 2.828125 -22.984375 L 7.25 -22.984375 L 7.25 -9.015625 C 7.25 -8.023438 7.398438 -7.1875 7.703125 -6.5 C 8.003906 -5.8125 8.398438 -5.257812 8.890625 -4.84375 C 9.390625 -4.425781 9.957031 -4.117188 10.59375 -3.921875 C 11.238281 -3.734375 11.894531 -3.640625 12.5625 -3.640625 C 13.070312 -3.640625 13.65625 -3.734375 14.3125 -3.921875 C 14.96875 -4.117188 15.582031 -4.429688 16.15625 -4.859375 C 16.738281 -5.296875 17.226562 -5.847656 17.625 -6.515625 C 18.03125 -7.191406 18.234375 -8.007812 18.234375 -8.96875 L 18.234375 -22.984375 L 22.875 -22.984375 L 22.875 0 L 19.1875 0 Z M 18.234375 -2.0625 "/></g></g></g><g fill="#ffffff" fill-opacity="1"><g transform="translate(200.706928, 182.401218)"><g><path d="M 13.578125 0.578125 C 11.910156 0.578125 10.347656 0.265625 8.890625 -0.359375 C 7.441406 -0.984375 6.171875 -1.835938 5.078125 -2.921875 C 3.992188 -4.015625 3.140625 -5.296875 2.515625 -6.765625 C 1.890625 -8.234375 1.578125 -9.800781 1.578125 -11.46875 C 1.578125 -13.125 1.875 -14.6875 2.46875 -16.15625 C 3.0625 -17.632812 3.859375 -18.914062 4.859375 -20 C 5.867188 -21.09375 7.046875 -21.945312 8.390625 -22.5625 C 9.734375 -23.1875 11.175781 -23.5 12.71875 -23.5 C 14.28125 -23.5 15.722656 -23.226562 17.046875 -22.6875 C 18.378906 -22.144531 19.53125 -21.296875 20.5 -20.140625 C 21.476562 -18.992188 22.238281 -17.53125 22.78125 -15.75 C 23.320312 -13.976562 23.59375 -11.863281 23.59375 -9.40625 L 6.53125 -9.40625 C 6.75 -8.570312 7.097656 -7.796875 7.578125 -7.078125 C 8.054688 -6.359375 8.625 -5.734375 9.28125 -5.203125 C 9.9375 -4.671875 10.671875 -4.257812 11.484375 -3.96875 C 12.304688 -3.6875 13.164062 -3.546875 14.0625 -3.546875 C 15.269531 -3.546875 16.394531 -3.769531 17.4375 -4.21875 C 18.476562 -4.664062 19.363281 -5.257812 20.09375 -6 L 22.984375 -3.125 C 21.859375 -2 20.488281 -1.097656 18.875 -0.421875 C 17.257812 0.242188 15.492188 0.578125 13.578125 0.578125 Z M 12.71875 -19.28125 C 11.976562 -19.28125 11.28125 -19.132812 10.625 -18.84375 C 9.96875 -18.5625 9.359375 -18.164062 8.796875 -17.65625 C 8.242188 -17.144531 7.765625 -16.535156 7.359375 -15.828125 C 6.960938 -15.128906 6.664062 -14.363281 6.46875 -13.53125 L 18.609375 -13.53125 C 18.546875 -14.289062 18.367188 -15.023438 18.078125 -15.734375 C 17.796875 -16.441406 17.398438 -17.054688 16.890625 -17.578125 C 16.378906 -18.109375 15.78125 -18.523438 15.09375 -18.828125 C 14.40625 -19.128906 13.613281 -19.28125 12.71875 -19.28125 Z M 12.71875 -19.28125 "/></g></g></g><g fill="#ffffff" fill-opacity="1"><g transform="translate(226.132111, 182.401218)"><g><path d="M 7.578125 -35.015625 L 7.578125 0 L 2.921875 0 L 2.921875 -35.015625 Z M 7.578125 -35.015625 "/></g></g></g><g fill="#ffffff" fill-opacity="1"><g transform="translate(278.345324, 206.425581)"><g><path d="M 31.296875 -52.71875 L 35.375 -50.28125 L 4.515625 1.796875 L 0.4375 -0.640625 Z M 31.296875 -52.71875 "/></g></g></g><g fill="#ffffff" fill-opacity="1"><g transform="translate(314.156577, 206.425581)"><g><path d="M 3.296875 -34.8125 L 34.234375 -19.84375 L 34.234375 -14.609375 L 3.296875 0.359375 L 3.296875 -4.875 L 28.796875 -17.265625 L 3.296875 -29.578125 Z M 3.296875 -34.8125 "/></g></g></g><g fill="#ffffff" fill-opacity="1"><g transform="translate(68.971882, 171.221455)"><g><path d="M -3.296875 34.8125 L -34.234375 19.84375 L -34.234375 14.609375 L -3.296875 -0.359375 L -3.296875 4.875 L -28.796875 17.265625 L -3.296875 29.578125 Z M -3.296875 34.8125 "/></g></g></g></svg>