<svg xmlns="http://www.w3.org/2000/svg" xmlns:xlink="http://www.w3.org/1999/xlink" width="80" zoomAndPan="magnify" viewBox="0 0 60 60" height="80" preserveAspectRatio="xMidYMid meet" version="1.0"><defs><clipPath id="4f052882a2"><path d="M 3.503906 1.757812 L 56.753906 1.757812 L 56.753906 58 L 3.503906 58 Z M 3.503906 1.757812 " clip-rule="nonzero"/></clipPath><clipPath id="5c7f99fd64"><path d="M 29 1.757812 L 56.753906 1.757812 L 56.753906 58 L 29 58 Z M 29 1.757812 " clip-rule="nonzero"/></clipPath></defs><g clip-path="url(#4f052882a2)"><path fill="#e23237" d="M 3.503906 11.1875 L 29.761719 1.925781 L 56.710938 11.042969 L 52.359375 45.457031 L 29.761719 57.84375 L 7.535156 45.617188 Z M 3.503906 11.1875 " fill-opacity="1" fill-rule="nonzero"/></g><g clip-path="url(#5c7f99fd64)"><path fill="#b52e31" d="M 56.710938 11.042969 L 29.761719 1.925781 L 29.761719 57.84375 L 52.359375 45.457031 Z M 56.710938 11.042969 " fill-opacity="1" fill-rule="nonzero"/></g><path fill="#ffffff" d="M 29.804688 8.460938 L 13.441406 44.527344 L 19.546875 44.40625 L 22.84375 36.253906 L 37.480469 36.253906 L 41.0625 44.46875 L 46.882812 44.589844 Z M 29.84375 20.039062 L 35.382812 31.496094 L 25.015625 31.496094 L 29.859375 20.039062 Z M 29.84375 20.039062 " fill-opacity="1" fill-rule="nonzero"/></svg>