<svg xmlns="http://www.w3.org/2000/svg" xmlns:xlink="http://www.w3.org/1999/xlink" width="80" zoomAndPan="magnify" viewBox="0 0 60 60" height="80" preserveAspectRatio="xMidYMid meet" version="1.0"><defs><clipPath id="639ce5c959"><path d="M 6 4.136719 L 54.75 4.136719 L 54.75 59.636719 L 6 59.636719 Z M 6 4.136719 " clip-rule="nonzero"/></clipPath></defs><g clip-path="url(#639ce5c959)"><path fill="#e44d26" d="M 10.472656 53.878906 L 6.042969 4.398438 L 54.707031 4.398438 L 50.273438 53.867188 L 30.34375 59.371094 Z M 10.472656 53.878906 " fill-opacity="1" fill-rule="nonzero"/></g><path fill="#f16529" d="M 30.375 55.167969 L 46.480469 50.722656 L 50.265625 8.445312 L 30.375 8.445312 Z M 30.375 55.167969 " fill-opacity="1" fill-rule="nonzero"/><path fill="#ebebeb" d="M 30.375 26.796875 L 22.3125 26.796875 L 21.757812 20.582031 L 30.375 20.582031 L 30.375 14.511719 L 15.097656 14.511719 L 15.242188 16.140625 L 16.742188 32.863281 L 30.375 32.863281 Z M 30.375 42.554688 L 30.347656 42.5625 L 23.5625 40.738281 L 23.128906 35.894531 L 17.015625 35.894531 L 17.867188 45.425781 L 30.347656 48.875 L 30.375 48.867188 Z M 30.375 42.554688 " fill-opacity="1" fill-rule="nonzero"/><path fill="#ffffff" d="M 30.355469 26.796875 L 30.355469 32.863281 L 37.855469 32.863281 L 37.148438 40.734375 L 30.351562 42.558594 L 30.351562 48.871094 L 42.839844 45.425781 L 42.933594 44.398438 L 44.367188 28.421875 L 44.515625 26.792969 L 42.871094 26.792969 Z M 30.355469 14.511719 L 30.355469 20.582031 L 45.070312 20.582031 L 45.191406 19.214844 L 45.46875 16.140625 L 45.613281 14.511719 Z M 30.355469 14.511719 " fill-opacity="1" fill-rule="nonzero"/></svg>