<svg xmlns="http://www.w3.org/2000/svg" xmlns:xlink="http://www.w3.org/1999/xlink" width="80" zoomAndPan="magnify" viewBox="0 0 60 60" height="80" preserveAspectRatio="xMidYMid meet" version="1.0"><defs><clipPath id="4b535896a1"><path d="M 3.769531 3.769531 L 56.269531 3.769531 L 56.269531 56.269531 L 3.769531 56.269531 Z M 3.769531 3.769531 " clip-rule="nonzero"/></clipPath></defs><g clip-path="url(#4b535896a1)"><path fill="#ffd600" d="M 3.769531 3.769531 L 56.269531 3.769531 L 56.269531 56.269531 L 3.769531 56.269531 Z M 3.769531 3.769531 " fill-opacity="1" fill-rule="nonzero"/></g><path fill="#000001" d="M 38.09375 43.066406 C 39.105469 44.707031 40.199219 46.277344 42.523438 46.277344 C 44.476562 46.277344 45.5 45.304688 45.5 43.964844 C 45.5 42.359375 44.441406 41.789062 42.292969 40.855469 L 41.117188 40.351562 C 37.71875 38.910156 35.460938 37.105469 35.460938 33.292969 C 35.460938 29.777344 38.152344 27.105469 42.355469 27.105469 C 45.351562 27.105469 47.5 28.140625 49.054688 30.855469 L 45.386719 33.199219 C 44.582031 31.757812 43.707031 31.191406 42.355469 31.191406 C 40.976562 31.191406 40.101562 32.0625 40.101562 33.199219 C 40.101562 34.605469 40.976562 35.175781 42.996094 36.042969 L 44.175781 36.546875 C 48.179688 38.25 50.433594 39.992188 50.433594 43.90625 C 50.433594 48.125 47.105469 50.433594 42.632812 50.433594 C 38.261719 50.433594 35.777344 48.242188 34.394531 45.523438 Z M 21.199219 43.1875 C 21.9375 44.507812 23.058594 45.523438 24.671875 45.523438 C 26.214844 45.523438 27.101562 44.914062 27.101562 42.542969 L 27.101562 27.101562 L 31.960938 27.101562 L 31.960938 43.292969 C 31.960938 48.203125 29.113281 50.433594 24.957031 50.433594 C 21.199219 50.433594 18.484375 47.890625 17.378906 45.523438 Z M 21.199219 43.1875 " fill-opacity="1" fill-rule="nonzero"/></svg>