<svg xmlns="http://www.w3.org/2000/svg" xmlns:xlink="http://www.w3.org/1999/xlink" width="80" zoomAndPan="magnify" viewBox="0 0 60 60" height="80" preserveAspectRatio="xMidYMid meet" version="1.0"><defs><clipPath id="bc2a1e5490"><path d="M 2.042969 6 L 58.292969 6 L 58.292969 54.75 L 2.042969 54.75 Z M 2.042969 6 " clip-rule="nonzero"/></clipPath></defs><g clip-path="url(#bc2a1e5490)"><path fill="#007fff" d="M 49.460938 39.277344 C 49.695312 39.140625 49.894531 38.945312 50.03125 38.707031 C 50.171875 38.46875 50.242188 38.199219 50.242188 37.925781 L 50.273438 28.871094 C 50.273438 28.59375 50.347656 28.324219 50.484375 28.089844 C 50.621094 27.851562 50.820312 27.652344 51.058594 27.515625 L 55.957031 24.699219 C 56.195312 24.5625 56.464844 24.488281 56.738281 24.488281 C 57.015625 24.488281 57.28125 24.5625 57.519531 24.699219 C 57.757812 24.835938 57.953125 25.035156 58.089844 25.273438 C 58.226562 25.511719 58.300781 25.78125 58.300781 26.054688 L 58.300781 42.519531 C 58.300781 42.792969 58.226562 43.066406 58.089844 43.304688 C 57.953125 43.542969 57.753906 43.738281 57.515625 43.875 L 39.015625 54.515625 C 38.777344 54.652344 38.511719 54.726562 38.238281 54.726562 C 37.964844 54.726562 37.699219 54.652344 37.460938 54.519531 L 22.941406 46.203125 C 22.703125 46.066406 22.503906 45.867188 22.367188 45.628906 C 22.226562 45.390625 22.15625 45.121094 22.152344 44.84375 L 22.152344 36.542969 C 22.152344 36.53125 22.164062 36.527344 22.175781 36.53125 C 22.183594 36.535156 22.195312 36.53125 22.195312 36.519531 L 22.195312 36.511719 C 22.195312 36.503906 22.195312 36.5 22.203125 36.496094 L 34.160156 29.617188 C 34.171875 29.609375 34.167969 29.59375 34.15625 29.59375 C 34.152344 29.59375 34.148438 29.589844 34.144531 29.589844 C 34.144531 29.585938 34.140625 29.582031 34.140625 29.582031 L 34.164062 21.441406 C 34.167969 21.164062 34.09375 20.894531 33.957031 20.65625 C 33.820312 20.417969 33.625 20.21875 33.386719 20.082031 C 33.148438 19.941406 32.878906 19.871094 32.605469 19.871094 C 32.328125 19.871094 32.058594 19.941406 31.820312 20.078125 L 22.933594 25.207031 C 22.695312 25.34375 22.429688 25.417969 22.15625 25.417969 C 21.878906 25.417969 21.613281 25.34375 21.375 25.207031 L 12.460938 20.066406 C 12.222656 19.929688 11.953125 19.859375 11.679688 19.859375 C 11.40625 19.859375 11.136719 19.929688 10.898438 20.066406 C 10.660156 20.207031 10.464844 20.402344 10.328125 20.640625 C 10.1875 20.878906 10.117188 21.148438 10.117188 21.421875 L 10.117188 36.132812 C 10.117188 36.40625 10.046875 36.675781 9.910156 36.914062 C 9.773438 37.152344 9.574219 37.347656 9.339844 37.488281 C 9.101562 37.625 8.832031 37.699219 8.558594 37.699219 C 8.285156 37.699219 8.015625 37.628906 7.777344 37.492188 L 2.832031 34.660156 C 2.59375 34.523438 2.394531 34.324219 2.253906 34.085938 C 2.117188 33.847656 2.042969 33.574219 2.042969 33.296875 L 2.085938 7.585938 C 2.089844 7.3125 2.160156 7.042969 2.296875 6.804688 C 2.433594 6.570312 2.632812 6.371094 2.871094 6.234375 C 3.105469 6.097656 3.375 6.027344 3.648438 6.027344 C 3.921875 6.023438 4.191406 6.097656 4.429688 6.234375 L 21.375 15.980469 C 21.613281 16.117188 21.882812 16.1875 22.15625 16.1875 C 22.425781 16.1875 22.695312 16.117188 22.933594 15.980469 L 39.875 6.234375 C 40.113281 6.097656 40.382812 6.023438 40.65625 6.023438 C 40.929688 6.027344 41.199219 6.097656 41.4375 6.234375 C 41.675781 6.375 41.871094 6.570312 42.007812 6.808594 C 42.144531 7.046875 42.214844 7.316406 42.214844 7.589844 L 42.214844 33.308594 C 42.214844 33.585938 42.144531 33.855469 42.007812 34.09375 C 41.871094 34.332031 41.671875 34.527344 41.433594 34.664062 L 32.558594 39.785156 C 32.320312 39.921875 32.125 40.117188 31.988281 40.359375 C 31.847656 40.597656 31.777344 40.867188 31.777344 41.144531 C 31.777344 41.417969 31.851562 41.6875 31.992188 41.925781 C 32.128906 42.164062 32.328125 42.363281 32.566406 42.5 L 37.460938 45.289062 C 37.699219 45.421875 37.964844 45.496094 38.238281 45.492188 C 38.507812 45.492188 38.777344 45.421875 39.011719 45.285156 Z M 50.484375 16.207031 C 50.488281 16.484375 50.558594 16.757812 50.699219 16.996094 C 50.839844 17.234375 51.039062 17.433594 51.277344 17.570312 C 51.519531 17.703125 51.792969 17.773438 52.066406 17.769531 C 52.34375 17.769531 52.613281 17.691406 52.851562 17.550781 L 57.539062 14.730469 C 57.773438 14.59375 57.964844 14.398438 58.097656 14.160156 C 58.230469 13.925781 58.300781 13.660156 58.300781 13.390625 L 58.300781 7.652344 C 58.300781 7.375 58.226562 7.101562 58.085938 6.863281 C 57.945312 6.625 57.746094 6.425781 57.507812 6.292969 C 57.265625 6.15625 56.992188 6.085938 56.71875 6.089844 C 56.441406 6.09375 56.171875 6.167969 55.933594 6.3125 L 51.246094 9.128906 C 51.015625 9.265625 50.824219 9.464844 50.691406 9.699219 C 50.554688 9.933594 50.488281 10.199219 50.484375 10.46875 L 50.484375 16.210938 Z M 50.484375 16.207031 " fill-opacity="1" fill-rule="nonzero"/></g></svg>