<svg xmlns="http://www.w3.org/2000/svg" xmlns:xlink="http://www.w3.org/1999/xlink" width="80" zoomAndPan="magnify" viewBox="0 0 60 60" height="80" preserveAspectRatio="xMidYMid meet" version="1.0"><defs><clipPath id="90b06a10db"><path d="M 1.609375 11.644531 L 58.609375 11.644531 L 58.609375 46.144531 L 1.609375 46.144531 Z M 1.609375 11.644531 " clip-rule="nonzero"/></clipPath></defs><g clip-path="url(#90b06a10db)"><path fill="#000000" d="M 15.058594 20.644531 L 25.8125 20.644531 L 25.8125 21.503906 L 16.046875 21.503906 L 16.046875 27.949219 L 25.230469 27.949219 L 25.230469 28.808594 L 16.046875 28.808594 L 16.046875 35.886719 L 25.921875 35.886719 L 25.921875 36.742188 L 15.058594 36.742188 Z M 26.773438 20.644531 L 27.917969 20.644531 L 32.980469 27.722656 L 38.152344 20.644531 L 45.1875 11.652344 L 33.628906 28.46875 L 39.585938 36.742188 L 38.398438 36.742188 L 32.980469 29.210938 L 27.535156 36.742188 L 26.371094 36.742188 L 32.375 28.46875 Z M 40.011719 21.503906 L 40.011719 20.644531 L 52.261719 20.644531 L 52.261719 21.503906 L 46.617188 21.503906 L 46.617188 36.742188 L 45.632812 36.742188 L 45.632812 21.503906 Z M 1.609375 20.644531 L 2.84375 20.644531 L 19.828125 46.128906 L 12.808594 36.742188 L 2.640625 21.863281 L 2.597656 36.742188 L 1.613281 36.742188 L 1.613281 20.644531 Z M 52.164062 35.628906 C 51.960938 35.628906 51.8125 35.46875 51.8125 35.269531 C 51.8125 35.066406 51.960938 34.910156 52.164062 34.910156 C 52.367188 34.910156 52.515625 35.066406 52.515625 35.269531 C 52.515625 35.46875 52.367188 35.628906 52.164062 35.628906 Z M 53.132812 34.683594 L 53.660156 34.683594 C 53.664062 34.96875 53.875 35.164062 54.179688 35.164062 C 54.523438 35.164062 54.71875 34.957031 54.71875 34.570312 L 54.71875 32.113281 L 55.253906 32.113281 L 55.253906 34.570312 C 55.253906 35.269531 54.851562 35.671875 54.1875 35.671875 C 53.5625 35.671875 53.132812 35.28125 53.132812 34.683594 Z M 55.957031 34.652344 L 56.488281 34.652344 C 56.535156 34.984375 56.855469 35.191406 57.320312 35.191406 C 57.75 35.191406 58.066406 34.96875 58.066406 34.660156 C 58.066406 34.394531 57.863281 34.234375 57.40625 34.128906 L 56.960938 34.019531 C 56.335938 33.875 56.050781 33.570312 56.050781 33.058594 C 56.050781 32.441406 56.554688 32.03125 57.308594 32.03125 C 58.011719 32.03125 58.523438 32.441406 58.554688 33.027344 L 58.03125 33.027344 C 57.984375 32.707031 57.703125 32.503906 57.300781 32.503906 C 56.878906 32.503906 56.59375 32.710938 56.59375 33.023438 C 56.59375 33.269531 56.777344 33.414062 57.226562 33.519531 L 57.609375 33.613281 C 58.316406 33.78125 58.609375 34.070312 58.609375 34.589844 C 58.609375 35.253906 58.097656 35.671875 57.277344 35.671875 C 56.511719 35.671875 55.996094 35.273438 55.957031 34.652344 Z M 55.957031 34.652344 " fill-opacity="1" fill-rule="nonzero"/></g></svg>