<svg xmlns="http://www.w3.org/2000/svg" xmlns:xlink="http://www.w3.org/1999/xlink" width="80" zoomAndPan="magnify" viewBox="0 0 60 60" height="80" preserveAspectRatio="xMidYMid meet" version="1.0"><defs><clipPath id="6bc488b089"><path d="M 4.460938 4.289062 L 57.710938 4.289062 L 57.710938 57.539062 L 4.460938 57.539062 Z M 4.460938 4.289062 " clip-rule="nonzero"/></clipPath></defs><g clip-path="url(#6bc488b089)"><path fill="#000000" d="M 57.523438 30.820312 C 57.523438 31.691406 57.484375 32.558594 57.398438 33.421875 C 57.3125 34.285156 57.183594 35.144531 57.015625 35.996094 C 56.847656 36.851562 56.636719 37.691406 56.382812 38.523438 C 56.128906 39.355469 55.839844 40.171875 55.503906 40.976562 C 55.171875 41.777344 54.800781 42.5625 54.390625 43.328125 C 53.984375 44.09375 53.535156 44.839844 53.054688 45.5625 C 52.570312 46.285156 52.054688 46.980469 51.503906 47.652344 C 50.953125 48.324219 50.367188 48.96875 49.753906 49.582031 C 49.140625 50.195312 48.496094 50.777344 47.824219 51.332031 C 47.152344 51.882812 46.457031 52.398438 45.734375 52.882812 C 45.011719 53.363281 44.265625 53.808594 43.5 54.21875 C 42.734375 54.628906 41.949219 55 41.148438 55.332031 C 40.34375 55.664062 39.527344 55.957031 38.695312 56.210938 C 37.863281 56.460938 37.023438 56.671875 36.167969 56.84375 C 35.316406 57.011719 34.460938 57.140625 33.59375 57.226562 C 32.730469 57.308594 31.863281 57.351562 30.992188 57.351562 C 30.125 57.351562 29.257812 57.308594 28.394531 57.226562 C 27.527344 57.140625 26.671875 57.011719 25.816406 56.84375 C 24.964844 56.671875 24.125 56.460938 23.292969 56.210938 C 22.460938 55.957031 21.644531 55.664062 20.839844 55.332031 C 20.039062 55 19.253906 54.628906 18.488281 54.21875 C 17.722656 53.808594 16.976562 53.363281 16.253906 52.882812 C 15.53125 52.398438 14.835938 51.882812 14.164062 51.332031 C 13.492188 50.777344 12.847656 50.195312 12.234375 49.582031 C 11.617188 48.96875 11.035156 48.324219 10.484375 47.652344 C 9.933594 46.980469 9.417969 46.285156 8.933594 45.5625 C 8.449219 44.839844 8.003906 44.09375 7.59375 43.328125 C 7.1875 42.5625 6.816406 41.777344 6.480469 40.976562 C 6.148438 40.171875 5.855469 39.355469 5.605469 38.523438 C 5.351562 37.691406 5.140625 36.851562 4.972656 35.996094 C 4.804688 35.144531 4.675781 34.285156 4.589844 33.421875 C 4.503906 32.558594 4.460938 31.691406 4.460938 30.820312 C 4.460938 29.953125 4.503906 29.085938 4.589844 28.222656 C 4.675781 27.355469 4.804688 26.496094 4.972656 25.644531 C 5.140625 24.792969 5.351562 23.953125 5.605469 23.121094 C 5.855469 22.289062 6.148438 21.472656 6.480469 20.667969 C 6.816406 19.867188 7.1875 19.082031 7.59375 18.316406 C 8.003906 17.546875 8.449219 16.804688 8.933594 16.082031 C 9.417969 15.359375 9.933594 14.660156 10.484375 13.992188 C 11.035156 13.320312 11.617188 12.675781 12.234375 12.0625 C 12.847656 11.445312 13.492188 10.863281 14.164062 10.3125 C 14.835938 9.761719 15.53125 9.246094 16.253906 8.761719 C 16.976562 8.277344 17.722656 7.832031 18.488281 7.421875 C 19.253906 7.011719 20.039062 6.640625 20.839844 6.308594 C 21.644531 5.976562 22.460938 5.683594 23.292969 5.433594 C 24.125 5.179688 24.964844 4.96875 25.816406 4.800781 C 26.671875 4.628906 27.527344 4.503906 28.394531 4.417969 C 29.257812 4.332031 30.125 4.289062 30.992188 4.289062 C 31.863281 4.289062 32.730469 4.332031 33.59375 4.417969 C 34.460938 4.503906 35.316406 4.628906 36.167969 4.800781 C 37.023438 4.96875 37.863281 5.179688 38.695312 5.433594 C 39.527344 5.683594 40.34375 5.976562 41.148438 6.308594 C 41.949219 6.640625 42.734375 7.011719 43.5 7.421875 C 44.265625 7.832031 45.011719 8.277344 45.734375 8.761719 C 46.457031 9.246094 47.152344 9.761719 47.824219 10.3125 C 48.496094 10.863281 49.140625 11.445312 49.753906 12.0625 C 50.367188 12.675781 50.953125 13.320312 51.503906 13.992188 C 52.054688 14.660156 52.570312 15.359375 53.054688 16.082031 C 53.535156 16.804688 53.984375 17.546875 54.390625 18.316406 C 54.800781 19.082031 55.171875 19.867188 55.503906 20.667969 C 55.839844 21.472656 56.128906 22.289062 56.382812 23.121094 C 56.636719 23.953125 56.847656 24.792969 57.015625 25.644531 C 57.183594 26.496094 57.3125 27.355469 57.398438 28.222656 C 57.484375 29.085938 57.523438 29.953125 57.523438 30.820312 Z M 57.523438 30.820312 " fill-opacity="1" fill-rule="nonzero"/></g><path fill="#ffffff" d="M 44.710938 6.6875 C 26.53125 -4 3.429688 9.054688 3.226562 30.132812 C 3.03125 50.714844 24.8125 64.011719 42.953125 54.953125 L 23.148438 25.8125 L 23.148438 43.847656 C 23.148438 45.847656 19.324219 45.847656 19.324219 43.847656 L 19.324219 19.671875 C 19.324219 18.085938 22.269531 17.953125 23.105469 19.332031 L 45.679688 53.398438 C 62.636719 42.476562 62.40625 17.09375 44.710938 6.6875 Z M 42.160156 40.824219 L 38.324219 34.964844 L 38.324219 18.921875 C 38.324219 17.425781 42.160156 17.425781 42.160156 18.921875 Z M 42.160156 40.824219 " fill-opacity="1" fill-rule="nonzero"/></svg>