<svg xmlns="http://www.w3.org/2000/svg" xmlns:xlink="http://www.w3.org/1999/xlink" width="80" zoomAndPan="magnify" viewBox="0 0 60 60" height="80" preserveAspectRatio="xMidYMid meet" version="1.0"><defs><clipPath id="9b9fe74201"><path d="M 4 1.28125 L 55.695312 1.28125 L 55.695312 59 L 4 59 Z M 4 1.28125 " clip-rule="nonzero"/></clipPath></defs><g clip-path="url(#9b9fe74201)"><path fill="#8cc84b" d="M 27.433594 2.050781 C 28.855469 1.238281 30.667969 1.234375 32.054688 2.050781 L 53.277344 14.164062 C 54.605469 14.921875 55.496094 16.417969 55.484375 17.96875 L 55.484375 42.253906 C 55.492188 43.867188 54.515625 45.398438 53.117188 46.140625 L 32.003906 58.199219 C 31.269531 58.609375 30.480469 58.804688 29.640625 58.78125 C 28.800781 58.757812 28.023438 58.519531 27.3125 58.066406 L 20.976562 54.359375 C 20.546875 54.101562 20.0625 53.894531 19.753906 53.46875 C 20.027344 53.101562 20.503906 53.058594 20.894531 52.894531 C 21.777344 52.609375 22.585938 52.175781 23.394531 51.714844 C 23.597656 51.570312 23.851562 51.625 24.046875 51.753906 L 29.449219 54.917969 C 29.832031 55.140625 30.222656 54.84375 30.554688 54.65625 L 51.285156 42.8125 C 51.542969 42.6875 51.683594 42.414062 51.660156 42.128906 L 51.660156 18.074219 C 51.691406 17.75 51.507812 17.457031 51.21875 17.324219 L 30.160156 5.320312 C 29.882812 5.128906 29.609375 5.128906 29.332031 5.320312 L 8.304688 17.347656 C 8.019531 17.480469 7.824219 17.773438 7.859375 18.09375 L 7.859375 42.148438 C 7.835938 42.433594 7.984375 42.703125 8.242188 42.824219 L 13.859375 46.035156 C 14.917969 46.609375 16.210938 46.933594 17.375 46.511719 C 17.894531 46.3125 18.3125 45.980469 18.628906 45.519531 C 18.945312 45.054688 19.101562 44.539062 19.097656 43.976562 L 19.105469 20.066406 C 19.078125 19.710938 19.410156 19.417969 19.75 19.457031 L 22.453125 19.457031 C 22.808594 19.445312 23.085938 19.828125 23.039062 20.183594 L 23.03125 44.246094 C 23.035156 46.382812 22.167969 48.707031 20.214844 49.753906 C 17.808594 51.015625 14.832031 50.75 12.453125 49.539062 L 6.414062 46.15625 C 4.992188 45.4375 4.035156 43.882812 4.046875 42.269531 L 4.046875 17.984375 C 4.050781 17.179688 4.257812 16.433594 4.667969 15.742188 C 5.074219 15.054688 5.625 14.515625 6.324219 14.132812 Z M 33.554688 18.886719 C 36.621094 18.707031 39.90625 18.769531 42.667969 20.300781 C 44.808594 21.472656 45.992188 23.933594 46.03125 26.339844 C 45.972656 26.664062 45.636719 26.84375 45.332031 26.820312 C 44.441406 26.820312 43.550781 26.832031 42.660156 26.816406 C 42.28125 26.828125 42.0625 26.476562 42.015625 26.140625 C 41.757812 24.988281 41.136719 23.847656 40.066406 23.292969 C 38.425781 22.460938 36.519531 22.5 34.730469 22.519531 C 33.421875 22.589844 32.015625 22.703125 30.910156 23.480469 C 30.054688 24.070312 29.800781 25.28125 30.105469 26.21875 C 30.386719 26.910156 31.175781 27.128906 31.816406 27.335938 C 35.515625 28.3125 39.433594 28.234375 43.066406 29.507812 C 44.566406 30.03125 46.039062 31.054688 46.554688 32.644531 C 47.222656 34.78125 46.929688 37.332031 45.433594 39.042969 C 44.21875 40.453125 42.449219 41.203125 40.679688 41.636719 C 38.328125 42.167969 35.890625 42.179688 33.503906 41.945312 C 31.257812 41.683594 28.921875 41.085938 27.191406 39.539062 C 25.707031 38.238281 24.988281 36.207031 25.058594 34.25 C 25.074219 33.921875 25.402344 33.691406 25.714844 33.714844 L 28.382812 33.714844 C 28.742188 33.691406 29.003906 34.003906 29.019531 34.347656 C 29.1875 35.425781 29.59375 36.59375 30.539062 37.226562 C 32.363281 38.414062 34.648438 38.332031 36.734375 38.367188 C 38.464844 38.289062 40.40625 38.265625 41.820312 37.109375 C 42.566406 36.449219 42.785156 35.34375 42.582031 34.394531 C 42.363281 33.59375 41.515625 33.21875 40.804688 32.957031 C 37.152344 31.785156 33.191406 32.210938 29.574219 30.886719 C 28.105469 30.363281 26.6875 29.367188 26.121094 27.839844 C 25.335938 25.683594 25.695312 23.007812 27.355469 21.351562 C 28.953125 19.707031 31.300781 19.070312 33.519531 18.84375 Z M 33.554688 18.886719 " fill-opacity="1" fill-rule="nonzero"/></g></svg>