<svg xmlns="http://www.w3.org/2000/svg" xmlns:xlink="http://www.w3.org/1999/xlink" width="80" zoomAndPan="magnify" viewBox="0 0 60 60" height="80" preserveAspectRatio="xMidYMid meet" version="1.0"><path fill="#ffffff" d="M 58.546875 36.53125 C 58.296875 35.402344 57.269531 34.082031 55.203125 34.082031 C 54.777344 34.082031 54.316406 34.136719 53.789062 34.246094 C 52.824219 34.445312 52.003906 34.539062 51.277344 34.574219 C 56.914062 24.972656 60.574219 11.636719 56.949219 7.007812 C 52.175781 0.910156 45.75 0 42.34375 0 L 42.023438 0 C 40.757812 0.0195312 39.441406 0.175781 38.117188 0.460938 L 33.234375 1.519531 C 32.566406 1.433594 31.890625 1.375 31.183594 1.363281 L 30.914062 1.363281 C 28.742188 1.363281 26.761719 1.824219 24.992188 2.6875 L 23.289062 2.015625 C 20.941406 1.09375 17.414062 -0.0078125 13.921875 -0.0078125 C 13.726562 -0.0078125 13.53125 -0.00390625 13.335938 0.00390625 C 9.894531 0.125 6.941406 1.433594 4.792969 3.777344 C 2.109375 6.703125 0.886719 10.984375 1.164062 16.5 C 1.175781 16.785156 4.515625 45 13.976562 45 L 14.097656 45 C 15.328125 44.96875 16.5 44.476562 17.59375 43.53125 C 18.429688 44.15625 19.511719 44.527344 20.519531 44.675781 C 21.183594 44.832031 22.382812 45.054688 23.816406 45.054688 C 25.566406 45.054688 27.144531 44.695312 28.507812 44.046875 C 28.503906 45.25 28.5 46.765625 28.484375 48.710938 L 28.484375 48.8125 L 28.492188 48.914062 C 28.621094 50.847656 28.957031 52.59375 29.460938 53.960938 C 30.894531 57.859375 33.367188 60.007812 36.429688 60.007812 C 36.554688 60.007812 36.6875 60.003906 36.816406 59.996094 C 39.335938 59.839844 41.886719 58.425781 43.640625 56.214844 C 45.539062 53.820312 45.980469 51.296875 46.148438 49.359375 L 46.160156 49.242188 L 46.160156 43.558594 L 46.300781 43.574219 L 46.894531 43.625 L 46.953125 43.632812 L 47.007812 43.632812 C 47.175781 43.640625 47.351562 43.644531 47.527344 43.644531 C 49.582031 43.644531 52.113281 43.113281 53.824219 42.316406 C 55.457031 41.558594 59.195312 39.472656 58.546875 36.53125 Z M 58.546875 36.53125 " fill-opacity="1" fill-rule="nonzero"/><path fill="#0277bd" d="M 43.433594 42.273438 C 43.433594 41.992188 43.449219 41.761719 43.457031 41.503906 C 43.441406 41.160156 43.433594 40.910156 43.433594 40.910156 C 43.433594 40.910156 43.449219 40.898438 43.476562 40.878906 C 43.679688 37.234375 44.683594 35.828125 45.757812 35.027344 C 45.609375 34.820312 45.4375 34.59375 45.273438 34.382812 C 44.820312 33.785156 44.253906 33.046875 43.648438 32.097656 L 43.535156 31.882812 C 43.445312 31.660156 43.222656 31.273438 42.945312 30.765625 C 41.332031 27.847656 37.972656 21.777344 40.269531 17.941406 C 41.277344 16.261719 43.164062 15.292969 45.890625 15.054688 C 44.777344 11.886719 40.601562 4.246094 31.136719 4.089844 C 31.136719 4.089844 31.132812 4.089844 31.128906 4.089844 C 22.894531 3.957031 20.1875 11.445312 19.304688 15.917969 C 20.519531 15.402344 21.902344 15.089844 23.171875 15.089844 C 23.191406 15.089844 23.210938 15.089844 23.230469 15.089844 C 26.355469 15.113281 28.5 16.78125 29.125 19.664062 C 29.582031 21.78125 29.800781 23.632812 29.796875 25.328125 C 29.78125 29.035156 29.035156 30.984375 28.375 32.707031 L 28.164062 33.261719 C 27.996094 33.71875 27.816406 34.140625 27.648438 34.539062 C 27.476562 34.945312 27.324219 35.308594 27.214844 35.632812 C 27.875 35.78125 28.394531 35.996094 28.75 36.152344 L 28.957031 36.242188 C 29.019531 36.269531 29.082031 36.300781 29.140625 36.335938 C 30.296875 37.039062 31.019531 38.121094 31.171875 39.378906 C 31.257812 40.058594 31.242188 44.6875 31.214844 48.726562 C 31.332031 50.480469 31.628906 51.953125 32.023438 53.019531 C 32.578125 54.539062 33.972656 57.4375 36.652344 57.269531 C 38.519531 57.15625 40.316406 56.019531 41.507812 54.519531 C 42.785156 52.90625 43.257812 51.125 43.433594 49.121094 Z M 43.433594 42.273438 " fill-opacity="1" fill-rule="nonzero"/><path fill="#0277bd" d="M 19.042969 35.339844 C 16.84375 33.046875 15.769531 29.960938 16.171875 27.082031 C 16.5625 24.308594 16.34375 21.59375 16.222656 20.132812 C 16.183594 19.644531 16.15625 19.28125 16.160156 19.082031 C 16.160156 19.070312 16.160156 19.0625 16.164062 19.050781 C 16.164062 19.042969 16.160156 19.039062 16.160156 19.035156 C 16.324219 14.914062 17.914062 8.417969 22.289062 4.554688 C 20.15625 3.714844 16.6875 2.609375 13.433594 2.726562 C 8.328125 2.914062 3.390625 6.441406 3.886719 16.363281 C 4.074219 20.085938 8.28125 42.414062 14.03125 42.273438 C 14.855469 42.253906 15.707031 41.722656 16.585938 40.667969 C 17.972656 39 19.320312 37.488281 20.277344 36.4375 C 19.847656 36.109375 19.433594 35.75 19.042969 35.339844 Z M 48.917969 15.996094 C 48.9375 16.207031 48.921875 16.386719 48.886719 16.554688 C 48.929688 17.808594 48.796875 19.027344 48.65625 20.203125 C 48.554688 21.070312 48.453125 21.96875 48.425781 22.867188 C 48.394531 23.746094 48.519531 24.613281 48.652344 25.53125 C 48.957031 27.683594 49.277344 30.113281 47.605469 32.945312 C 47.914062 33.351562 48.183594 33.726562 48.398438 34.089844 C 54.6875 23.894531 57.21875 11.777344 54.800781 8.6875 C 51.144531 4.015625 46.078125 2.660156 42.066406 2.726562 C 40.8125 2.746094 39.667969 2.917969 38.695312 3.128906 C 45.617188 6.484375 48.699219 13.671875 48.917969 15.996094 Z M 54.339844 36.914062 C 50.707031 37.664062 48.957031 37.265625 48.109375 36.742188 C 47.972656 36.839844 47.835938 36.925781 47.710938 37.003906 C 47.203125 37.308594 46.402344 37.796875 46.203125 40.796875 C 46.316406 40.816406 46.417969 40.828125 46.539062 40.855469 L 47.132812 40.910156 C 48.933594 40.992188 51.289062 40.488281 52.671875 39.84375 C 55.652344 38.460938 57.277344 36.308594 54.339844 36.914062 Z M 28.464844 39.707031 C 28.414062 39.300781 28.191406 38.972656 27.792969 38.710938 L 27.644531 38.644531 C 27.152344 38.429688 26.59375 38.183594 25.703125 38.183594 L 25.699219 38.183594 C 25.527344 38.195312 25.355469 38.207031 25.179688 38.207031 C 25.109375 38.207031 25.039062 38.199219 24.96875 38.195312 C 24.324219 38.691406 23.402344 39.078125 21.128906 39.546875 C 17.066406 40.582031 19.464844 41.800781 21.023438 41.992188 C 22.53125 42.371094 26.117188 42.828125 28.496094 40.886719 C 28.492188 40.277344 28.480469 39.859375 28.464844 39.707031 Z M 28.464844 39.707031 " fill-opacity="1" fill-rule="nonzero"/><path fill="#0277bd" d="M 26.632812 21.136719 C 26.234375 21.550781 25.605469 21.910156 24.914062 21.796875 C 23.78125 21.613281 22.917969 20.253906 22.980469 19.742188 C 23.039062 19.230469 24.003906 18.964844 25.132812 19.148438 C 25.523438 19.210938 25.878906 19.324219 26.179688 19.460938 C 25.742188 18.519531 24.953125 17.980469 23.75 17.847656 C 21.613281 17.609375 19.351562 18.726562 18.894531 19.34375 C 18.902344 19.492188 18.921875 19.683594 18.941406 19.910156 C 19.066406 21.476562 19.300781 24.390625 18.871094 27.460938 C 18.585938 29.488281 19.40625 31.785156 21.007812 33.457031 C 22.039062 34.53125 23.246094 35.214844 24.433594 35.417969 C 24.585938 34.765625 24.855469 34.128906 25.132812 33.472656 C 25.289062 33.113281 25.453125 32.726562 25.605469 32.3125 L 25.828125 31.730469 C 26.429688 30.152344 27.054688 28.523438 27.066406 25.316406 C 27.074219 24.082031 26.921875 22.671875 26.632812 21.136719 Z M 45.949219 25.917969 C 45.808594 24.925781 45.664062 23.894531 45.699219 22.777344 C 45.730469 21.765625 45.839844 20.8125 45.949219 19.886719 C 46.035156 19.160156 46.097656 18.464844 46.136719 17.773438 C 44.378906 17.921875 43.210938 18.429688 42.660156 19.285156 C 42.886719 19.207031 43.148438 19.148438 43.433594 19.109375 C 44.648438 18.953125 45.539062 19.300781 45.640625 19.980469 C 45.714844 20.472656 45.292969 20.941406 45.109375 21.117188 C 44.734375 21.484375 44.257812 21.722656 43.773438 21.785156 C 43.683594 21.796875 43.597656 21.800781 43.511719 21.800781 C 43.03125 21.800781 42.570312 21.636719 42.21875 21.390625 C 42.371094 24.082031 44.355469 27.679688 45.328125 29.445312 C 45.539062 29.824219 45.699219 30.125 45.832031 30.382812 C 46.367188 28.859375 46.171875 27.46875 45.949219 25.917969 Z M 45.949219 25.917969 " fill-opacity="1" fill-rule="nonzero"/></svg>