<svg xmlns="http://www.w3.org/2000/svg" xmlns:xlink="http://www.w3.org/1999/xlink" width="80" zoomAndPan="magnify" viewBox="0 0 60 60" height="80" preserveAspectRatio="xMidYMid meet" version="1.0"><defs><clipPath id="1746640bd3"><path d="M 1.628906 4 L 58.628906 4 L 58.628906 56 L 1.628906 56 Z M 1.628906 4 " clip-rule="nonzero"/></clipPath></defs><g clip-path="url(#1746640bd3)"><path fill="#00d8ff" d="M 48.472656 21.109375 C 47.882812 20.90625 47.269531 20.714844 46.640625 20.535156 C 46.746094 20.113281 46.839844 19.699219 46.925781 19.292969 C 48.308594 12.59375 47.40625 7.199219 44.308594 5.425781 C 41.335938 3.722656 36.476562 5.496094 31.574219 9.742188 C 31.101562 10.148438 30.628906 10.582031 30.15625 11.035156 C 29.839844 10.734375 29.527344 10.445312 29.210938 10.167969 C 24.070312 5.628906 18.917969 3.714844 15.824219 5.496094 C 12.855469 7.207031 11.976562 12.277344 13.226562 18.625 C 13.347656 19.238281 13.488281 19.863281 13.648438 20.5 C 12.917969 20.707031 12.214844 20.925781 11.539062 21.160156 C 5.511719 23.246094 1.664062 26.523438 1.664062 29.921875 C 1.664062 33.429688 5.796875 36.949219 12.074219 39.082031 C 12.570312 39.25 13.082031 39.410156 13.613281 39.558594 C 13.441406 40.25 13.292969 40.921875 13.164062 41.582031 C 11.976562 47.816406 12.90625 52.769531 15.863281 54.464844 C 18.921875 56.21875 24.050781 54.417969 29.046875 50.074219 C 29.441406 49.734375 29.835938 49.367188 30.234375 48.988281 C 30.75 49.480469 31.261719 49.945312 31.773438 50.382812 C 36.613281 54.523438 41.390625 56.195312 44.347656 54.496094 C 47.398438 52.734375 48.394531 47.414062 47.105469 40.945312 C 47.007812 40.449219 46.890625 39.945312 46.765625 39.433594 C 47.125 39.324219 47.476562 39.214844 47.824219 39.101562 C 54.351562 36.949219 58.59375 33.476562 58.59375 29.921875 C 58.59375 26.511719 54.621094 23.214844 48.472656 21.109375 Z M 47.058594 36.808594 C 46.746094 36.910156 46.425781 37.007812 46.101562 37.101562 C 45.382812 34.835938 44.410156 32.425781 43.21875 29.933594 C 44.351562 27.5 45.289062 25.117188 45.988281 22.863281 C 46.570312 23.03125 47.136719 23.210938 47.679688 23.394531 C 52.949219 25.199219 56.164062 27.867188 56.164062 29.921875 C 56.164062 32.109375 52.691406 34.949219 47.058594 36.808594 Z M 44.71875 41.414062 C 45.289062 44.273438 45.371094 46.863281 44.992188 48.886719 C 44.652344 50.703125 43.972656 51.914062 43.128906 52.398438 C 41.332031 53.433594 37.496094 52.089844 33.359375 48.550781 C 32.882812 48.144531 32.40625 47.710938 31.929688 47.25 C 33.53125 45.507812 35.136719 43.480469 36.699219 41.226562 C 39.453125 40.984375 42.050781 40.585938 44.410156 40.042969 C 44.527344 40.511719 44.628906 40.96875 44.71875 41.414062 Z M 21.074219 52.222656 C 19.320312 52.839844 17.925781 52.855469 17.082031 52.371094 C 15.285156 51.339844 14.539062 47.363281 15.554688 42.03125 C 15.671875 41.421875 15.8125 40.792969 15.972656 40.152344 C 18.304688 40.667969 20.886719 41.035156 23.644531 41.257812 C 25.21875 43.460938 26.871094 45.488281 28.53125 47.261719 C 28.167969 47.609375 27.804688 47.941406 27.445312 48.253906 C 25.238281 50.175781 23.023438 51.539062 21.074219 52.222656 Z M 12.859375 36.792969 C 10.085938 35.847656 7.792969 34.625 6.21875 33.285156 C 4.808594 32.082031 4.09375 30.890625 4.09375 29.921875 C 4.09375 27.859375 7.1875 25.230469 12.339844 23.441406 C 12.964844 23.226562 13.621094 23.019531 14.300781 22.828125 C 15.011719 25.132812 15.949219 27.542969 17.074219 29.976562 C 15.933594 32.449219 14.984375 34.898438 14.265625 37.230469 C 13.78125 37.09375 13.3125 36.945312 12.859375 36.792969 Z M 15.613281 18.160156 C 14.542969 12.722656 15.253906 8.621094 17.042969 7.589844 C 18.945312 6.496094 23.160156 8.058594 27.597656 11.976562 C 27.882812 12.226562 28.167969 12.488281 28.453125 12.761719 C 26.796875 14.527344 25.164062 16.539062 23.601562 18.730469 C 20.925781 18.976562 18.363281 19.371094 16.003906 19.902344 C 15.855469 19.3125 15.726562 18.730469 15.613281 18.160156 Z M 40.171875 24.191406 C 39.609375 23.222656 39.03125 22.277344 38.441406 21.359375 C 40.257812 21.585938 41.996094 21.890625 43.632812 22.261719 C 43.140625 23.824219 42.53125 25.460938 41.808594 27.136719 C 41.292969 26.160156 40.746094 25.175781 40.171875 24.191406 Z M 30.15625 14.488281 C 31.277344 15.699219 32.402344 17.046875 33.507812 18.511719 C 32.394531 18.460938 31.265625 18.433594 30.128906 18.433594 C 29.003906 18.433594 27.886719 18.457031 26.777344 18.511719 C 27.882812 17.058594 29.015625 15.710938 30.15625 14.488281 Z M 20.078125 24.207031 C 19.515625 25.175781 18.980469 26.152344 18.46875 27.132812 C 17.761719 25.464844 17.15625 23.820312 16.660156 22.234375 C 18.285156 21.875 20.019531 21.578125 21.824219 21.355469 C 21.226562 22.28125 20.640625 23.234375 20.078125 24.207031 Z M 21.875 38.65625 C 20.011719 38.453125 18.25 38.171875 16.628906 37.820312 C 17.128906 36.207031 17.75 34.53125 18.472656 32.820312 C 18.984375 33.800781 19.519531 34.777344 20.085938 35.753906 C 20.664062 36.742188 21.261719 37.710938 21.875 38.65625 Z M 30.222656 45.519531 C 29.070312 44.285156 27.921875 42.914062 26.796875 41.445312 C 27.886719 41.488281 29 41.507812 30.128906 41.507812 C 31.289062 41.507812 32.4375 41.480469 33.566406 41.433594 C 32.457031 42.929688 31.335938 44.300781 30.222656 45.519531 Z M 41.832031 32.734375 C 42.59375 34.460938 43.234375 36.128906 43.746094 37.714844 C 42.09375 38.089844 40.3125 38.390625 38.433594 38.617188 C 39.023438 37.683594 39.609375 36.722656 40.179688 35.734375 C 40.761719 34.734375 41.3125 33.734375 41.832031 32.734375 Z M 38.074219 34.527344 C 37.183594 36.0625 36.269531 37.527344 35.34375 38.90625 C 33.65625 39.027344 31.910156 39.089844 30.128906 39.089844 C 28.355469 39.089844 26.632812 39.035156 24.972656 38.929688 C 24.007812 37.527344 23.074219 36.058594 22.191406 34.539062 C 21.308594 33.027344 20.5 31.496094 19.761719 29.976562 C 20.5 28.457031 21.308594 26.925781 22.183594 25.414062 C 23.0625 23.898438 23.988281 22.4375 24.945312 21.042969 C 26.636719 20.917969 28.375 20.851562 30.128906 20.851562 C 31.894531 20.851562 33.628906 20.917969 35.324219 21.046875 C 36.265625 22.429688 37.183594 23.886719 38.066406 25.402344 C 38.957031 26.933594 39.777344 28.453125 40.519531 29.945312 C 39.78125 31.460938 38.960938 32.996094 38.074219 34.527344 Z M 43.089844 7.519531 C 45 8.613281 45.738281 13.019531 44.539062 18.804688 C 44.464844 19.171875 44.378906 19.546875 44.285156 19.929688 C 41.921875 19.386719 39.359375 18.984375 36.675781 18.734375 C 35.109375 16.515625 33.488281 14.503906 31.859375 12.757812 C 32.296875 12.339844 32.734375 11.941406 33.167969 11.566406 C 37.371094 7.929688 41.300781 6.492188 43.089844 7.519531 Z M 30.128906 24.863281 C 32.9375 24.863281 35.214844 27.125 35.214844 29.921875 C 35.214844 32.710938 32.9375 34.976562 30.128906 34.976562 C 27.324219 34.976562 25.046875 32.710938 25.046875 29.921875 C 25.046875 27.125 27.324219 24.863281 30.128906 24.863281 Z M 30.128906 24.863281 " fill-opacity="1" fill-rule="nonzero"/></g></svg>