<svg xmlns="http://www.w3.org/2000/svg" xmlns:xlink="http://www.w3.org/1999/xlink" width="80" zoomAndPan="magnify" viewBox="0 0 60 60" height="80" preserveAspectRatio="xMidYMid meet" version="1.0"><defs><clipPath id="0a44750765"><path d="M 13 1.578125 L 45 1.578125 L 45 45 L 13 45 Z M 13 1.578125 " clip-rule="nonzero"/></clipPath><clipPath id="7b7e615d91"><path d="M 2 26 L 45 26 L 45 55.578125 L 2 55.578125 Z M 2 26 " clip-rule="nonzero"/></clipPath><clipPath id="de404a114e"><path d="M 22 18 L 58 18 L 58 55.578125 L 22 55.578125 Z M 22 18 " clip-rule="nonzero"/></clipPath></defs><g clip-path="url(#0a44750765)"><path fill="#6c4eb0" d="M 21.011719 9.269531 C 23.101562 6.625 27.03125 5.316406 29.710938 5.25 C 37.222656 5.105469 40.351562 14.597656 40.59375 18.371094 L 44.074219 19.429688 C 43.269531 7.859375 36.179688 1.792969 29.394531 1.792969 C 23.03125 1.792969 17.15625 6.480469 14.789062 13.359375 C 11.554688 22.53125 13.675781 31.347656 17.640625 38.402344 C 17.292969 38.859375 17.085938 39.667969 17.15625 40.445312 C 17.222656 42.5625 18.996094 44.324219 21.121094 44.324219 L 21.257812 44.324219 C 23.484375 44.253906 25.191406 42.386719 25.085938 40.164062 C 25.085938 38.046875 23.277344 36.289062 21.15625 36.289062 L 21.011719 36.289062 C 20.875 36.289062 20.667969 36.289062 20.492188 36.355469 C 17.605469 31.417969 16.386719 26.125 16.84375 20.414062 C 17.117188 16.109375 18.511719 12.371094 21.011719 9.269531 Z M 21.011719 9.269531 " fill-opacity="1" fill-rule="nonzero"/></g><g clip-path="url(#7b7e615d91)"><path fill="#6c4eb0" d="M 4.253906 49.304688 C 6.582031 52.828125 11.347656 55.085938 16.566406 55.085938 C 17.957031 55.085938 19.417969 54.980469 20.84375 54.628906 C 29.886719 52.863281 36.742188 47.363281 40.671875 39.253906 L 40.703125 39.179688 C 42.722656 39.003906 44.285156 37.203125 44.183594 35.050781 C 44.078125 32.898438 42.339844 31.171875 40.21875 31.171875 L 40.078125 31.171875 C 37.886719 31.246094 36.183594 33.113281 36.25 35.335938 C 36.320312 36.464844 36.777344 37.382812 37.398438 38.050781 C 34.964844 42.847656 31.3125 46.371094 25.78125 49.339844 C 22.058594 51.3125 18.128906 52.054688 14.304688 51.523438 C 11.105469 51.070312 8.601562 49.617188 7.070312 47.292969 C 4.777344 43.765625 4.570312 39.957031 6.480469 36.148438 C 7.875 33.398438 9.957031 31.390625 11.351562 30.398438 C 11.003906 29.484375 10.585938 27.933594 10.375 26.769531 C 0.078125 34.246094 1.125 44.46875 4.253906 49.304688 Z M 4.253906 49.304688 " fill-opacity="1" fill-rule="nonzero"/></g><g clip-path="url(#de404a114e)"><path fill="#6c4eb0" d="M 56.5625 47.746094 C 58.644531 43.515625 58.472656 36.390625 53.152344 30.289062 L 53.117188 30.359375 C 47.730469 23.941406 39.796875 20.414062 30.753906 20.414062 L 29.566406 20.414062 C 28.980469 19.109375 27.625 18.296875 26.09375 18.296875 L 25.988281 18.296875 C 23.800781 18.296875 22.09375 20.203125 22.164062 22.421875 C 22.234375 24.539062 24.007812 26.304688 26.128906 26.304688 L 26.300781 26.304688 C 27.867188 26.234375 29.222656 25.246094 29.777344 23.835938 L 31.066406 23.835938 C 36.429688 23.835938 41.503906 25.421875 46.132812 28.523438 C 49.675781 30.886719 52.21875 33.992188 53.644531 37.695312 C 54.890625 40.726562 54.824219 43.691406 53.539062 46.160156 C 51.554688 50.039062 48.214844 52.085938 43.800781 52.085938 C 41.015625 52.085938 38.304688 51.203125 36.914062 50.570312 C 36.078125 51.269531 34.6875 52.4375 33.675781 53.144531 C 36.738281 54.550781 39.832031 55.363281 42.824219 55.363281 C 49.605469 55.363281 54.644531 51.488281 56.5625 47.746094 Z M 56.5625 47.746094 " fill-opacity="1" fill-rule="nonzero"/></g></svg>