<svg xmlns="http://www.w3.org/2000/svg" xmlns:xlink="http://www.w3.org/1999/xlink" width="80" zoomAndPan="magnify" viewBox="0 0 60 60" height="80" preserveAspectRatio="xMidYMid meet" version="1.0"><defs><clipPath id="0ee0f0f166"><path d="M 3.226562 3.226562 L 56.476562 3.226562 L 56.476562 56.476562 L 3.226562 56.476562 Z M 3.226562 3.226562 " clip-rule="nonzero"/></clipPath></defs><g clip-path="url(#0ee0f0f166)"><path fill="#007acc" d="M 3.226562 56.476562 L 56.476562 56.476562 L 56.476562 3.226562 L 3.226562 3.226562 Z M 3.226562 56.476562 " fill-opacity="1" fill-rule="nonzero"/></g><path fill="#ffffff" d="M 15 30.023438 L 14.980469 32.207031 L 21.914062 32.207031 L 21.914062 51.902344 L 26.816406 51.902344 L 26.816406 32.207031 L 33.746094 32.207031 L 33.746094 30.070312 C 33.746094 28.886719 33.71875 27.894531 33.6875 27.871094 C 33.660156 27.835938 29.445312 27.820312 24.328125 27.828125 L 15.023438 27.851562 Z M 15 30.023438 " fill-opacity="1" fill-rule="nonzero"/><path fill="#ffffff" d="M 46.191406 27.792969 C 47.546875 28.128906 48.578125 28.730469 49.523438 29.710938 C 50.011719 30.234375 50.738281 31.191406 50.796875 31.417969 C 50.816406 31.488281 48.5 33.039062 47.097656 33.914062 C 47.046875 33.945312 46.84375 33.726562 46.617188 33.386719 C 45.929688 32.390625 45.210938 31.960938 44.113281 31.882812 C 42.5 31.773438 41.457031 32.617188 41.46875 34.03125 C 41.46875 34.445312 41.527344 34.691406 41.695312 35.027344 C 42.050781 35.761719 42.710938 36.203125 44.78125 37.097656 C 48.59375 38.738281 50.222656 39.820312 51.238281 41.359375 C 52.371094 43.074219 52.625 45.8125 51.855469 47.847656 C 51.011719 50.0625 48.914062 51.566406 45.964844 52.066406 C 45.050781 52.226562 42.886719 52.203125 41.90625 52.027344 C 39.769531 51.644531 37.738281 50.589844 36.488281 49.203125 C 36 48.664062 35.042969 47.25 35.101562 47.148438 C 35.128906 47.113281 35.347656 46.980469 35.59375 46.835938 C 35.832031 46.699219 36.726562 46.183594 37.570312 45.695312 L 39.101562 44.808594 L 39.421875 45.28125 C 39.871094 45.964844 40.851562 46.902344 41.441406 47.214844 C 43.140625 48.109375 45.472656 47.984375 46.625 46.953125 C 47.113281 46.503906 47.316406 46.042969 47.316406 45.355469 C 47.316406 44.738281 47.242188 44.46875 46.917969 44.003906 C 46.503906 43.414062 45.660156 42.914062 43.261719 41.875 C 40.511719 40.691406 39.328125 39.953125 38.246094 38.789062 C 37.621094 38.113281 37.03125 37.03125 36.785156 36.125 C 36.582031 35.375 36.53125 33.488281 36.691406 32.730469 C 37.257812 30.074219 39.261719 28.222656 42.152344 27.675781 C 43.089844 27.496094 45.273438 27.5625 46.191406 27.792969 Z M 46.191406 27.792969 " fill-opacity="1" fill-rule="nonzero"/></svg>